<mxfile host="app.diagrams.net" modified="2024-05-17T23:18:59.380Z" agent="Mozilla/5.0 (Windows NT 10.0; Win64; x64) AppleWebKit/537.36 (KHTML, like Gecko) Chrome/124.0.0.0 Safari/537.36" etag="0BmPNw1cDgyjjNZ8_dIC" version="24.4.4" type="device">
  <diagram name="Página-1" id="mRngvGsMIa_AzN1IGxUW">
    <mxGraphModel dx="1114" dy="1769" grid="1" gridSize="10" guides="1" tooltips="1" connect="1" arrows="1" fold="1" page="1" pageScale="1" pageWidth="827" pageHeight="1169" math="0" shadow="0">
      <root>
        <mxCell id="0" />
        <mxCell id="1" parent="0" />
        <mxCell id="Ssspf5hGQEp6MVVnoSw4-3" value="" style="edgeStyle=orthogonalEdgeStyle;rounded=0;orthogonalLoop=1;jettySize=auto;html=1;" edge="1" parent="1" source="Ssspf5hGQEp6MVVnoSw4-1" target="Ssspf5hGQEp6MVVnoSw4-2">
          <mxGeometry relative="1" as="geometry" />
        </mxCell>
        <mxCell id="Ssspf5hGQEp6MVVnoSw4-1" value="" style="ellipse;whiteSpace=wrap;html=1;aspect=fixed;fillColor=#000000;" vertex="1" parent="1">
          <mxGeometry x="20" y="20" width="50" height="50" as="geometry" />
        </mxCell>
        <mxCell id="Ssspf5hGQEp6MVVnoSw4-5" value="" style="edgeStyle=orthogonalEdgeStyle;rounded=0;orthogonalLoop=1;jettySize=auto;html=1;" edge="1" parent="1" source="Ssspf5hGQEp6MVVnoSw4-2" target="Ssspf5hGQEp6MVVnoSw4-4">
          <mxGeometry relative="1" as="geometry" />
        </mxCell>
        <mxCell id="Ssspf5hGQEp6MVVnoSw4-2" value="Acessar área para visualizar status de validade" style="rounded=1;whiteSpace=wrap;html=1;" vertex="1" parent="1">
          <mxGeometry x="180" y="15" width="120" height="60" as="geometry" />
        </mxCell>
        <mxCell id="Ssspf5hGQEp6MVVnoSw4-7" value="" style="edgeStyle=orthogonalEdgeStyle;rounded=0;orthogonalLoop=1;jettySize=auto;html=1;" edge="1" parent="1" source="Ssspf5hGQEp6MVVnoSw4-4" target="Ssspf5hGQEp6MVVnoSw4-6">
          <mxGeometry relative="1" as="geometry" />
        </mxCell>
        <mxCell id="Ssspf5hGQEp6MVVnoSw4-4" value="Selecionar justificativa da falta" style="rounded=1;whiteSpace=wrap;html=1;" vertex="1" parent="1">
          <mxGeometry x="410" y="15" width="120" height="60" as="geometry" />
        </mxCell>
        <mxCell id="Ssspf5hGQEp6MVVnoSw4-9" value="" style="edgeStyle=orthogonalEdgeStyle;rounded=0;orthogonalLoop=1;jettySize=auto;html=1;" edge="1" parent="1" source="Ssspf5hGQEp6MVVnoSw4-6" target="Ssspf5hGQEp6MVVnoSw4-8">
          <mxGeometry relative="1" as="geometry" />
        </mxCell>
        <mxCell id="Ssspf5hGQEp6MVVnoSw4-17" value="" style="edgeStyle=orthogonalEdgeStyle;rounded=0;orthogonalLoop=1;jettySize=auto;html=1;" edge="1" parent="1" source="Ssspf5hGQEp6MVVnoSw4-6" target="Ssspf5hGQEp6MVVnoSw4-15">
          <mxGeometry relative="1" as="geometry" />
        </mxCell>
        <mxCell id="Ssspf5hGQEp6MVVnoSw4-6" value="" style="rhombus;whiteSpace=wrap;html=1;" vertex="1" parent="1">
          <mxGeometry x="600" y="20" width="50" height="50" as="geometry" />
        </mxCell>
        <mxCell id="Ssspf5hGQEp6MVVnoSw4-18" style="edgeStyle=orthogonalEdgeStyle;rounded=0;orthogonalLoop=1;jettySize=auto;html=1;exitX=0.5;exitY=1;exitDx=0;exitDy=0;entryX=1;entryY=0.5;entryDx=0;entryDy=0;" edge="1" parent="1" source="Ssspf5hGQEp6MVVnoSw4-8" target="Ssspf5hGQEp6MVVnoSw4-15">
          <mxGeometry relative="1" as="geometry" />
        </mxCell>
        <mxCell id="Ssspf5hGQEp6MVVnoSw4-8" value="Sistema exibe o status da validação" style="rounded=1;whiteSpace=wrap;html=1;" vertex="1" parent="1">
          <mxGeometry x="720" y="15" width="120" height="60" as="geometry" />
        </mxCell>
        <mxCell id="Ssspf5hGQEp6MVVnoSw4-12" value="Possui processo em aberto" style="text;html=1;align=center;verticalAlign=middle;whiteSpace=wrap;rounded=0;" vertex="1" parent="1">
          <mxGeometry x="610" y="-15" width="110" height="30" as="geometry" />
        </mxCell>
        <mxCell id="Ssspf5hGQEp6MVVnoSw4-13" value="Não possui processo em aberto" style="text;html=1;align=center;verticalAlign=middle;whiteSpace=wrap;rounded=0;" vertex="1" parent="1">
          <mxGeometry x="500" y="120" width="110" height="30" as="geometry" />
        </mxCell>
        <mxCell id="Ssspf5hGQEp6MVVnoSw4-15" value="" style="ellipse;whiteSpace=wrap;html=1;aspect=fixed;" vertex="1" parent="1">
          <mxGeometry x="600" y="185" width="50" height="50" as="geometry" />
        </mxCell>
        <mxCell id="Ssspf5hGQEp6MVVnoSw4-16" value="" style="ellipse;whiteSpace=wrap;html=1;aspect=fixed;fillColor=#000000;" vertex="1" parent="1">
          <mxGeometry x="605" y="190" width="40" height="40" as="geometry" />
        </mxCell>
      </root>
    </mxGraphModel>
  </diagram>
</mxfile>
